# xmcd
#
# Track frame offsets: 
#        150
#        15822
#        30765
#        48330
#        48692
#        72540
#        93390
#        114670
#        132642
#        163740
#
# Disc length: 2460 seconds
#
# Revision: 0
# Processed by: cddbd v1.5.2PL0 Copyright (c) Steve Scherf et al.
# Submitted via: ExactAudioCopy v1.0b3
#
DISCID=81099a0a
DTITLE=Bo Diddly - Ain’t It Good To Be Free
DYEAR=1983
DGENRE=Blues
TTITLE0=Ain't It Good To Be Free
TTITLE1=Bo Diddley Put The Rock In Rock 'n' Roll
TTITLE2=Gotta Be A Change
TTITLE3=I Don't Want Your Welfare
TTITLE4=Mona Where's Your Sister
TTITLE5=Stabilize Yourself
TTITLE6=I Don't Know Where I've Been
TTITLE7=I Ain't Gonna Force It On You
TTITLE8=Evil Woman
TTITLE9=Let The Fox Talk
EXTD=
EXTT0=
EXTT1=
EXTT2=
EXTT3=
EXTT4=
EXTT5=
EXTT6=
EXTT7=
EXTT8=
EXTT9=
PLAYORDER=
